<svg xmlns="http://www.w3.org/2000/svg" xmlns:xlink="http://www.w3.org/1999/xlink" width="500" zoomAndPan="magnify" viewBox="0 0 375 374.999991" height="500" preserveAspectRatio="xMidYMid meet" version="1.0"><defs><g/><clipPath id="d400d26531"><path d="M 53 145 L 99 145 L 99 240 L 53 240 Z M 53 145 " clip-rule="nonzero"/></clipPath><clipPath id="8ff3a2962c"><path d="M 32.421875 157.996094 L 95.316406 135.636719 L 124.207031 216.902344 L 61.3125 239.265625 Z M 32.421875 157.996094 " clip-rule="nonzero"/></clipPath><clipPath id="b8507df35d"><path d="M 32.421875 157.996094 L 95.316406 135.636719 L 124.207031 216.902344 L 61.3125 239.265625 Z M 32.421875 157.996094 " clip-rule="nonzero"/></clipPath></defs><path stroke-linecap="butt" transform="matrix(0.75, 0, 0, 0.75, 247.423085, 104.148596)" fill="none" stroke-linejoin="miter" d="M 79.889017 35.103958 L 135.258812 35.103958 C 136.019229 35.103958 136.326521 35.484167 136.175479 36.244583 C 135.566104 41.228959 134.711937 47.765417 133.60777 55.864376 C 132.503604 63.958127 131.32652 72.687294 130.071312 82.036253 C 128.852562 91.39042 127.659853 100.510213 126.477562 109.406046 C 125.300478 118.265422 124.237978 125.963339 123.284853 132.505006 C 122.373395 139.041465 121.76402 143.546674 121.461936 146.015424 C 120.665061 150.692507 120.034853 155.484174 119.581728 160.390425 C 119.123394 165.291467 118.685894 169.661259 118.269228 173.505009 C 117.889019 177.307093 117.696311 179.833134 117.696311 181.088343 C 117.545269 181.697718 117.243186 181.999801 116.784853 181.999801 L 25.206722 181.999801 C 24.597347 181.999801 24.290055 181.770635 24.290055 181.317509 C 22.279638 172.421676 20.795263 163.353967 19.842138 154.114383 C 18.93068 144.83834 17.847346 135.603965 16.592138 126.400839 C 16.441096 124.994589 16.118179 122.619589 15.623388 119.275839 C 15.170263 115.92688 14.654638 112.317505 14.086929 108.437296 C 13.550471 104.525838 13.019221 100.853963 12.487971 97.432087 C 11.956721 94.010212 11.612971 91.520629 11.461929 89.963337 C 10.816096 86.999795 10.185887 82.833128 9.581721 77.473753 C 8.972346 72.114377 8.342137 66.468544 7.696304 60.54146 C 7.092137 54.609168 6.461929 49.322709 5.816095 44.687292 C 5.20672 40.010209 4.753595 36.968542 4.446304 35.562292 C 4.446304 35.260208 4.597345 35.103958 4.904637 35.103958 L 60.045266 35.103958 C 60.654641 35.103958 60.956724 35.41125 60.956724 36.020625 C 61.264016 42.09875 61.795266 47.708126 62.555682 52.838334 C 63.352557 57.973751 64.133807 63.312293 64.894224 68.864377 C 65.691099 74.374794 66.321308 80.630003 66.774433 87.624795 C 66.967141 89.489378 67.784849 90.551879 69.227558 90.817504 C 70.711933 91.04667 71.623391 90.228962 71.961933 88.364378 C 72.571308 81.333128 73.373391 75.098753 74.357766 69.661252 C 75.383808 64.187293 76.3161 58.848751 77.154642 53.640418 C 78.029642 48.432084 78.618183 42.557084 78.920267 36.020625 C 79.112975 35.41125 79.435892 35.103958 79.889017 35.103958 Z M 79.889017 35.103958 " stroke="#ffffff" stroke-width="17.518274" stroke-opacity="1" stroke-miterlimit="4"/><g fill="#000000" fill-opacity="1"><g transform="translate(247.423085, 240.648587)"><g><path d="M 59.90625 -110.1875 L 101.421875 -110.1875 C 102.003906 -110.1875 102.238281 -109.894531 102.125 -109.3125 C 101.65625 -105.570312 101.007812 -100.664062 100.1875 -94.59375 C 99.375 -88.519531 98.5 -81.976562 97.5625 -74.96875 C 96.632812 -67.96875 95.734375 -61.140625 94.859375 -54.484375 C 93.984375 -47.828125 93.191406 -42.046875 92.484375 -37.140625 C 91.785156 -32.234375 91.320312 -28.84375 91.09375 -26.96875 C 90.507812 -23.46875 90.039062 -19.878906 89.6875 -16.203125 C 89.332031 -12.523438 89.007812 -9.253906 88.71875 -6.390625 C 88.425781 -3.535156 88.28125 -1.640625 88.28125 -0.703125 C 88.164062 -0.234375 87.929688 0 87.578125 0 L 18.921875 0 C 18.453125 0 18.21875 -0.175781 18.21875 -0.53125 C 16.695312 -7.1875 15.585938 -13.988281 14.890625 -20.9375 C 14.191406 -27.882812 13.375 -34.800781 12.4375 -41.6875 C 12.320312 -42.738281 12.085938 -44.519531 11.734375 -47.03125 C 11.390625 -49.539062 11.007812 -52.253906 10.59375 -55.171875 C 10.1875 -58.097656 9.78125 -60.84375 9.375 -63.40625 C 8.96875 -65.976562 8.703125 -67.847656 8.578125 -69.015625 C 8.109375 -71.234375 7.640625 -74.359375 7.171875 -78.390625 C 6.710938 -82.421875 6.25 -86.65625 5.78125 -91.09375 C 5.3125 -95.53125 4.84375 -99.5 4.375 -103 C 3.90625 -106.5 3.554688 -108.773438 3.328125 -109.828125 C 3.328125 -110.066406 3.441406 -110.1875 3.671875 -110.1875 L 45.015625 -110.1875 C 45.484375 -110.1875 45.71875 -109.953125 45.71875 -109.484375 C 45.945312 -104.929688 46.351562 -100.726562 46.9375 -96.875 C 47.53125 -93.019531 48.117188 -89.019531 48.703125 -84.875 C 49.285156 -80.726562 49.75 -76.023438 50.09375 -70.765625 C 50.21875 -69.367188 50.832031 -68.582031 51.9375 -68.40625 C 53.050781 -68.226562 53.722656 -68.84375 53.953125 -70.25 C 54.421875 -75.5 55.035156 -80.164062 55.796875 -84.25 C 56.554688 -88.34375 57.253906 -92.34375 57.890625 -96.25 C 58.535156 -100.164062 58.972656 -104.578125 59.203125 -109.484375 C 59.328125 -109.953125 59.5625 -110.1875 59.90625 -110.1875 Z M 59.90625 -110.1875 "/></g></g></g><path stroke-linecap="butt" transform="matrix(1.357091, 0, 0, 1.357091, 171.989364, 103.92925)" fill="none" stroke-linejoin="miter" d="M 75.758688 72.109997 C 75.758688 72.636744 75.758688 73.529048 75.758688 74.789788 C 75.758688 76.027499 75.758688 77.414888 75.758688 78.949075 C 75.758688 82.39452 74.85487 85.796789 73.050113 89.15876 C 71.242478 92.520731 68.752662 95.062358 65.580666 96.78652 C 64.717146 97.29024 63.059187 97.952272 60.601034 98.769737 C 58.14288 99.590081 55.327805 99.998814 52.155808 99.998814 L 4.253477 99.998814 C 4.08653 99.998814 4.003056 99.831867 4.003056 99.495094 C 4.08653 97.690337 4.106679 95.473969 4.066381 92.84599 C 4.023205 90.220889 3.980029 87.615938 3.939731 85.031134 C 3.896555 82.446331 3.876407 80.293288 3.876407 78.572005 C 3.876407 76.847843 3.876407 75.944026 3.876407 75.860552 C 3.876407 75.523779 3.95988 75.356832 4.129706 75.356832 C 4.4636 75.440306 6.092774 75.546807 9.011472 75.670578 C 11.953197 75.797227 15.231694 75.860552 18.844086 75.860552 C 22.709777 75.777079 26.451697 75.587104 30.064089 75.293507 C 33.676481 74.976883 36.051161 74.651624 37.18525 74.31773 C 37.775322 74.147904 38.647478 73.779469 39.801716 73.212424 C 40.978982 72.64538 41.566175 71.594764 41.566175 70.060576 C 41.566175 69.453234 41.261065 68.779688 40.653722 68.045696 C 40.06365 67.308826 38.992886 66.81662 37.43855 66.563321 C 35.967687 66.3129 34.329878 66.18625 32.522243 66.18625 C 30.714607 66.18625 29.033622 66.249575 27.479286 66.376225 C 25.945099 66.499996 24.874334 66.606497 24.264113 66.68997 C 23.656771 66.68997 22.467992 66.733146 20.703532 66.81662 C 18.939073 66.900093 16.932829 66.974932 14.684798 67.035378 C 12.459795 67.078554 10.335536 67.141879 8.320656 67.225353 C 6.302898 67.308826 4.863698 67.352002 4.003056 67.352002 C 3.749757 67.352002 3.623107 67.090068 3.623107 66.563321 C 3.539634 64.588738 3.499336 62.424181 3.499336 60.072529 C 3.499336 57.697849 3.499336 55.513143 3.499336 53.518412 C 3.499336 53.181639 3.58281 53.011814 3.749757 53.011814 C 4.003056 53.011814 5.073821 52.991665 6.96493 52.951367 C 8.856038 52.908191 11.135731 52.844867 13.804008 52.761393 C 16.472285 52.677919 19.180859 52.591567 21.932609 52.508094 C 24.68436 52.42462 27.070553 52.341147 29.088311 52.257673 C 31.126219 52.151172 32.355295 52.099361 32.775542 52.099361 C 33.636183 52.015887 34.727097 51.846062 36.051161 51.595641 C 37.395374 51.342342 38.561126 50.890433 39.548417 50.239915 C 40.558735 49.589396 41.062455 48.66543 41.062455 47.468015 C 41.062455 45.66038 40.38891 44.54644 39.044697 44.126193 C 37.720633 43.685798 36.670017 43.423864 35.892849 43.337512 C 34.948734 43.254038 33.310924 43.190713 30.976542 43.150416 C 28.645038 43.10724 26.019937 43.10724 23.098361 43.150416 C 20.179664 43.190713 17.301264 43.254038 14.46604 43.337512 C 11.627938 43.423864 9.21296 43.507337 7.21535 43.590811 C 5.240768 43.674284 4.08653 43.71746 3.749757 43.71746 C 3.476309 43.71746 3.341024 43.590811 3.341024 43.337512 C 3.341024 41.866649 3.341024 40.577126 3.341024 39.463185 C 3.341024 38.349245 3.341024 37.100019 3.341024 35.71263 C 3.341024 32.96088 3.341024 30.20913 3.341024 27.454501 C 3.341024 24.702751 3.392835 21.951 3.499336 19.19925 C 3.499336 18.945951 3.58281 18.822179 3.749757 18.822179 L 50.486336 18.822179 C 53.048112 18.822179 55.684727 18.925802 58.396179 19.135925 C 61.104754 19.346048 63.709706 20.00808 66.211035 21.122021 C 68.79296 22.256111 70.684069 23.620472 71.881483 25.217984 C 73.101925 26.792469 73.962566 28.441792 74.466286 30.165954 C 74.906681 31.803763 75.211792 33.853184 75.381617 36.311337 C 75.548565 38.749342 75.421915 40.91102 75.001669 42.802129 C 74.4778 45.66038 73.740929 47.761612 72.796814 49.105825 C 71.849821 50.429889 70.885557 51.457478 69.898265 52.194348 C 68.910974 52.908191 68.027306 53.780346 67.250138 54.810814 C 66.639917 55.754929 66.945027 56.61557 68.165469 57.392738 C 68.41589 57.582713 69.161395 58.256258 70.401985 59.410497 C 71.662725 60.564735 72.868774 62.205423 74.025891 64.326804 C 75.180129 66.428036 75.758688 69.021474 75.758688 72.109997 Z M 75.758688 72.109997 " stroke="#ffffff" stroke-width="9.681525" stroke-opacity="1" stroke-miterlimit="4"/><g fill="#000000" fill-opacity="1"><g transform="translate(171.989364, 239.638328)"><g><path d="M 102.828125 -37.84375 C 102.828125 -37.132812 102.828125 -35.929688 102.828125 -34.234375 C 102.828125 -32.546875 102.828125 -30.648438 102.828125 -28.546875 C 102.828125 -23.878906 101.597656 -19.265625 99.140625 -14.703125 C 96.691406 -10.148438 93.304688 -6.707031 88.984375 -4.375 C 87.816406 -3.675781 85.566406 -2.769531 82.234375 -1.65625 C 78.910156 -0.550781 75.085938 0 70.765625 0 L 5.78125 0 C 5.550781 0 5.4375 -0.234375 5.4375 -0.703125 C 5.550781 -3.148438 5.578125 -6.15625 5.515625 -9.71875 C 5.460938 -13.28125 5.40625 -16.8125 5.34375 -20.3125 C 5.28125 -23.820312 5.25 -26.742188 5.25 -29.078125 C 5.25 -31.410156 5.25 -32.632812 5.25 -32.75 C 5.25 -33.21875 5.367188 -33.453125 5.609375 -33.453125 C 6.078125 -33.335938 8.296875 -33.191406 12.265625 -33.015625 C 16.234375 -32.835938 20.671875 -32.75 25.578125 -32.75 C 30.828125 -32.875 35.90625 -33.140625 40.8125 -33.546875 C 45.71875 -33.953125 48.929688 -34.390625 50.453125 -34.859375 C 51.265625 -35.085938 52.457031 -35.582031 54.03125 -36.34375 C 55.613281 -37.101562 56.40625 -38.535156 56.40625 -40.640625 C 56.40625 -41.453125 55.992188 -42.351562 55.171875 -43.34375 C 54.359375 -44.34375 52.898438 -45.019531 50.796875 -45.375 C 48.816406 -45.71875 46.597656 -45.890625 44.140625 -45.890625 C 41.691406 -45.890625 39.414062 -45.800781 37.3125 -45.625 C 35.207031 -45.457031 33.75 -45.3125 32.9375 -45.1875 C 32.113281 -45.1875 30.503906 -45.128906 28.109375 -45.015625 C 25.722656 -44.898438 23.007812 -44.8125 19.96875 -44.75 C 16.9375 -44.695312 14.046875 -44.609375 11.296875 -44.484375 C 8.554688 -44.367188 6.601562 -44.3125 5.4375 -44.3125 C 5.082031 -44.3125 4.90625 -44.664062 4.90625 -45.375 C 4.789062 -48.0625 4.734375 -51.007812 4.734375 -54.21875 C 4.734375 -57.425781 4.734375 -60.375 4.734375 -63.0625 C 4.734375 -63.53125 4.847656 -63.765625 5.078125 -63.765625 C 5.429688 -63.765625 6.890625 -63.789062 9.453125 -63.84375 C 12.023438 -63.90625 15.117188 -63.992188 18.734375 -64.109375 C 22.359375 -64.222656 26.039062 -64.335938 29.78125 -64.453125 C 33.519531 -64.578125 36.757812 -64.695312 39.5 -64.8125 C 42.25 -64.925781 43.914062 -64.984375 44.5 -64.984375 C 45.664062 -65.097656 47.148438 -65.332031 48.953125 -65.6875 C 50.765625 -66.039062 52.34375 -66.65625 53.6875 -67.53125 C 55.03125 -68.40625 55.703125 -69.660156 55.703125 -71.296875 C 55.703125 -73.742188 54.796875 -75.257812 52.984375 -75.84375 C 51.179688 -76.425781 49.753906 -76.78125 48.703125 -76.90625 C 47.410156 -77.019531 45.1875 -77.101562 42.03125 -77.15625 C 38.882812 -77.21875 35.328125 -77.21875 31.359375 -77.15625 C 27.390625 -77.101562 23.476562 -77.015625 19.625 -76.890625 C 15.769531 -76.773438 12.5 -76.660156 9.8125 -76.546875 C 7.125 -76.429688 5.546875 -76.375 5.078125 -76.375 C 4.722656 -76.375 4.546875 -76.550781 4.546875 -76.90625 C 4.546875 -78.882812 4.546875 -80.632812 4.546875 -82.15625 C 4.546875 -83.675781 4.546875 -85.367188 4.546875 -87.234375 C 4.546875 -90.972656 4.546875 -94.707031 4.546875 -98.4375 C 4.546875 -102.175781 4.609375 -105.914062 4.734375 -109.65625 C 4.734375 -110.007812 4.847656 -110.1875 5.078125 -110.1875 L 68.5 -110.1875 C 72 -110.1875 75.585938 -110.039062 79.265625 -109.75 C 82.941406 -109.457031 86.472656 -108.550781 89.859375 -107.03125 C 93.367188 -105.507812 95.9375 -103.664062 97.5625 -101.5 C 99.195312 -99.34375 100.367188 -97.097656 101.078125 -94.765625 C 101.660156 -92.546875 102.066406 -89.769531 102.296875 -86.4375 C 102.535156 -83.113281 102.363281 -80.164062 101.78125 -77.59375 C 101.070312 -73.75 100.078125 -70.921875 98.796875 -69.109375 C 97.515625 -67.296875 96.203125 -65.890625 94.859375 -64.890625 C 93.515625 -63.898438 92.316406 -62.707031 91.265625 -61.3125 C 90.441406 -60.03125 90.847656 -58.863281 92.484375 -57.8125 C 92.835938 -57.570312 93.859375 -56.664062 95.546875 -55.09375 C 97.242188 -53.519531 98.878906 -51.300781 100.453125 -48.4375 C 102.035156 -45.570312 102.828125 -42.039062 102.828125 -37.84375 Z M 102.828125 -37.84375 "/></g></g></g><path stroke-linecap="butt" transform="matrix(1.357091, 0, 0, 1.357091, 78.142682, 104.148596)" fill="none" stroke-linejoin="miter" d="M 75.25425 78.571566 C 75.25425 79.685507 75.25425 80.914584 75.25425 82.258796 C 75.25425 83.579982 75.25425 84.71695 75.25425 85.661065 C 75.25425 86.35476 75.274399 87.393862 75.317575 88.781251 C 75.360751 90.145612 75.424076 91.627988 75.50755 93.2255 C 75.591023 94.820134 75.654348 96.17586 75.694646 97.289801 C 75.737822 98.403742 75.75797 98.959273 75.75797 98.959273 C 75.75797 99.652967 75.424076 100.001254 74.75053 100.001254 L 4.914791 100.001254 C 3.697228 100.001254 3.130184 99.402546 3.213657 98.205132 C 3.487105 91.731611 3.645417 85.252332 3.685715 78.758662 C 3.728891 72.26787 3.792216 65.754051 3.875689 59.220083 C 3.959163 52.855941 4.192313 46.448623 4.569384 39.998129 C 4.969481 33.527486 4.696033 27.108654 3.74904 20.744512 C 3.665566 20.217765 3.792216 19.765856 4.128988 19.388785 C 4.465761 19.008837 4.894643 18.821741 5.42139 18.821741 L 74.215148 18.821741 C 74.739017 18.821741 75.087303 19.072161 75.25425 19.575881 C 75.25425 19.662233 75.234102 20.050817 75.190926 20.744512 C 75.150628 21.435328 75.087303 22.129022 75.00383 22.822716 C 75.00383 23.242963 74.960654 24.230254 74.87718 25.78459 C 74.793706 27.338926 74.718868 28.956587 74.655543 30.637572 C 74.615246 32.298409 74.592218 33.559148 74.592218 34.41979 C 74.592218 35.280431 74.635394 36.342561 74.718868 37.6033 C 74.825369 38.84389 74.940505 39.954953 75.064276 40.942244 C 75.190926 41.929535 75.25425 42.42462 75.25425 42.42462 C 75.25425 43.118314 74.865666 43.463722 74.088498 43.463722 C 74.088498 43.463722 73.248006 43.443574 71.56702 43.400398 C 69.886034 43.3601 67.75314 43.337073 65.171215 43.337073 C 62.606561 43.337073 59.87496 43.337073 56.976411 43.337073 C 54.098011 43.337073 51.429734 43.380249 48.971581 43.463722 C 46.536454 43.547196 44.622318 43.673846 43.237808 43.843671 C 41.954042 44.010618 40.641491 44.399202 39.297279 45.009423 C 37.973215 45.616765 37.227709 46.699044 37.060762 48.25338 C 36.954261 49.200373 37.247858 49.99769 37.941552 50.648209 C 38.635247 51.278578 39.372117 51.762149 40.149285 52.098922 C 40.569531 52.182396 41.913744 52.277383 44.181923 52.383884 C 46.47313 52.467357 49.213366 52.507655 52.40839 52.507655 C 55.600536 52.507655 58.804195 52.487506 62.019367 52.447208 C 65.254689 52.404032 67.986291 52.383884 70.211294 52.383884 C 72.459324 52.383884 73.751726 52.383884 74.088498 52.383884 C 74.865666 52.383884 75.25425 52.717778 75.25425 53.391324 L 75.25425 64.104728 C 75.25425 65.051722 75.25425 65.872066 75.25425 66.562882 C 75.25425 67.256576 75.25425 67.993446 75.25425 68.770614 C 75.25425 69.464309 74.865666 69.809717 74.088498 69.809717 C 72.617636 69.809717 70.568215 69.789568 67.943115 69.746392 C 65.338163 69.683067 62.629588 69.611107 59.811635 69.527634 C 57.019587 69.441282 54.498109 69.377957 52.250078 69.337659 C 50.022197 69.294483 48.531185 69.274334 47.774166 69.274334 C 46.913525 69.357808 45.851395 69.400984 44.590656 69.400984 C 43.352944 69.400984 42.164165 69.579445 41.030075 69.936366 C 39.916135 70.273139 39.107304 70.95532 38.603584 71.982909 C 37.742943 73.623597 37.869592 74.979323 38.983533 76.050088 C 40.094595 77.120853 41.346699 77.834696 42.73121 78.191617 C 43.59473 78.361443 45.359189 78.444917 48.027465 78.444917 C 50.695742 78.444917 53.720941 78.381592 57.10306 78.254942 C 60.505329 78.128293 63.772313 78.004521 66.904012 77.877872 C 70.05586 77.731073 72.450689 77.615937 74.088498 77.529585 C 74.865666 77.529585 75.25425 77.877872 75.25425 78.571566 Z M 75.25425 78.571566 " stroke="#ffffff" stroke-width="9.681525" stroke-opacity="1" stroke-miterlimit="4"/><g fill="#000000" fill-opacity="1"><g transform="translate(78.142682, 239.857674)"><g><path d="M 102.125 -29.078125 C 102.125 -27.554688 102.125 -25.890625 102.125 -24.078125 C 102.125 -22.273438 102.125 -20.726562 102.125 -19.4375 C 102.125 -18.507812 102.148438 -17.109375 102.203125 -15.234375 C 102.265625 -13.367188 102.351562 -11.351562 102.46875 -9.1875 C 102.59375 -7.03125 102.679688 -5.191406 102.734375 -3.671875 C 102.796875 -2.160156 102.828125 -1.40625 102.828125 -1.40625 C 102.828125 -0.46875 102.359375 0 101.421875 0 L 6.65625 0 C 5.019531 0 4.257812 -0.816406 4.375 -2.453125 C 4.726562 -11.210938 4.929688 -20 4.984375 -28.8125 C 5.046875 -37.632812 5.132812 -46.484375 5.25 -55.359375 C 5.375 -63.992188 5.695312 -72.691406 6.21875 -81.453125 C 6.738281 -90.210938 6.359375 -98.914062 5.078125 -107.5625 C 4.960938 -108.257812 5.140625 -108.867188 5.609375 -109.390625 C 6.078125 -109.921875 6.660156 -110.1875 7.359375 -110.1875 L 100.71875 -110.1875 C 101.425781 -110.1875 101.894531 -109.832031 102.125 -109.125 C 102.125 -109.007812 102.09375 -108.484375 102.03125 -107.546875 C 101.976562 -106.617188 101.894531 -105.6875 101.78125 -104.75 C 101.78125 -104.164062 101.71875 -102.820312 101.59375 -100.71875 C 101.476562 -98.625 101.390625 -96.4375 101.328125 -94.15625 C 101.273438 -91.875 101.25 -90.148438 101.25 -88.984375 C 101.25 -87.816406 101.304688 -86.382812 101.421875 -84.6875 C 101.535156 -83 101.679688 -81.484375 101.859375 -80.140625 C 102.035156 -78.796875 102.125 -78.125 102.125 -78.125 C 102.125 -77.1875 101.597656 -76.71875 100.546875 -76.71875 C 100.546875 -76.71875 99.40625 -76.75 97.125 -76.8125 C 94.851562 -76.875 91.960938 -76.90625 88.453125 -76.90625 C 84.953125 -76.90625 81.242188 -76.90625 77.328125 -76.90625 C 73.421875 -76.90625 69.800781 -76.84375 66.46875 -76.71875 C 63.144531 -76.601562 60.550781 -76.429688 58.6875 -76.203125 C 56.9375 -75.960938 55.15625 -75.429688 53.34375 -74.609375 C 51.53125 -73.796875 50.507812 -72.34375 50.28125 -70.25 C 50.15625 -68.957031 50.5625 -67.875 51.5 -67 C 52.4375 -66.125 53.429688 -65.453125 54.484375 -64.984375 C 55.066406 -64.867188 56.90625 -64.753906 60 -64.640625 C 63.09375 -64.523438 66.796875 -64.46875 71.109375 -64.46875 C 75.429688 -64.46875 79.78125 -64.492188 84.15625 -64.546875 C 88.539062 -64.609375 92.25 -64.640625 95.28125 -64.640625 C 98.320312 -64.640625 100.078125 -64.640625 100.546875 -64.640625 C 101.597656 -64.640625 102.125 -64.171875 102.125 -63.234375 L 102.125 -48.703125 C 102.125 -47.410156 102.125 -46.296875 102.125 -45.359375 C 102.125 -44.429688 102.125 -43.441406 102.125 -42.390625 C 102.125 -41.453125 101.597656 -40.984375 100.546875 -40.984375 C 98.566406 -40.984375 95.796875 -41.015625 92.234375 -41.078125 C 88.671875 -41.140625 84.988281 -41.226562 81.1875 -41.34375 C 77.394531 -41.457031 73.976562 -41.539062 70.9375 -41.59375 C 67.90625 -41.65625 65.863281 -41.6875 64.8125 -41.6875 C 63.644531 -41.570312 62.210938 -41.515625 60.515625 -41.515625 C 58.828125 -41.515625 57.222656 -41.28125 55.703125 -40.8125 C 54.179688 -40.34375 53.070312 -39.410156 52.375 -38.015625 C 51.207031 -35.796875 51.378906 -33.957031 52.890625 -32.5 C 54.410156 -31.039062 56.109375 -30.078125 57.984375 -29.609375 C 59.148438 -29.367188 61.539062 -29.25 65.15625 -29.25 C 68.78125 -29.25 72.898438 -29.335938 77.515625 -29.515625 C 82.128906 -29.691406 86.566406 -29.867188 90.828125 -30.046875 C 95.085938 -30.222656 98.328125 -30.367188 100.546875 -30.484375 C 101.597656 -30.484375 102.125 -30.015625 102.125 -29.078125 Z M 102.125 -29.078125 "/></g></g></g><path stroke-linecap="butt" transform="matrix(1.357091, 0, 0, 1.357091, 21.757748, 103.92925)" fill="none" stroke-linejoin="miter" d="M 75.632884 62.058625 C 75.632884 64.893849 75.486085 67.867236 75.192488 70.975908 C 74.898892 74.064431 74.48728 76.384421 73.963412 77.941635 C 73.963412 77.941635 73.511503 79.107387 72.607685 81.438891 C 71.703868 83.750246 70.307844 86.061602 68.416735 88.370078 C 67.469741 89.420694 65.852081 90.787934 63.563753 92.46892 C 61.292695 94.126878 59.03603 95.430793 56.787999 96.374908 C 54.036249 97.508998 51.344945 98.340856 48.719844 98.864724 C 46.094744 99.368444 44.26696 99.621744 43.236492 99.621744 C 42.459324 99.705217 41.250397 99.768542 39.612587 99.811718 C 37.994926 99.852016 36.365752 99.875043 34.727942 99.875043 C 33.090133 99.875043 31.881205 99.875043 31.104037 99.875043 C 31.020563 99.875043 30.096597 99.895192 28.332138 99.938368 C 26.5648 99.978665 24.391608 99.998814 21.806805 99.998814 C 19.222002 99.998814 16.640077 99.998814 14.055274 99.998814 C 11.49062 99.998814 9.34909 99.998814 7.624929 99.998814 C 5.903646 99.998814 5.043004 99.998814 5.043004 99.998814 C 4.179484 99.998814 3.7909 99.569932 3.877252 98.709291 C 4.044199 98.015596 4.1507 96.429598 4.190998 93.948417 C 4.234174 91.449966 4.254322 88.591715 4.254322 85.376542 C 4.254322 82.141221 4.254322 79.044063 4.254322 76.082189 C 4.254322 73.097288 4.211146 70.745636 4.127673 69.021474 C 4.044199 65.239257 3.91755 61.459917 3.750602 57.6777 C 3.580777 53.875334 3.445492 50.081603 3.34187 46.299385 L 3.34187 24.115557 C 3.445492 22.728168 3.540479 21.300482 3.623953 19.829619 C 3.623953 19.156074 3.960726 18.822179 4.631393 18.822179 L 39.770899 18.822179 C 39.770899 18.822179 39.359288 18.822179 38.541822 18.822179 C 37.721478 18.822179 36.964459 18.822179 36.273643 18.822179 C 35.579949 18.822179 35.401488 18.822179 35.735382 18.822179 C 36.092304 18.822179 37.479693 18.822179 39.897549 18.822179 C 44.707355 18.822179 48.918454 19.314386 52.533724 20.301677 C 56.146116 21.288968 59.885158 23.370051 63.750849 26.542048 C 66.505477 28.706605 68.635493 31.28853 70.149532 34.293579 C 71.660692 37.298629 72.734335 40.070528 73.364704 42.615033 C 74.015223 45.15666 74.423956 46.898092 74.593781 47.845086 C 74.780877 48.789201 74.959338 50.208252 75.129164 52.099361 C 75.296111 53.99047 75.42276 55.890214 75.506234 57.80435 C 75.589708 59.69258 75.632884 61.111631 75.632884 62.058625 Z M 42.07074 67.225353 C 42.237688 66.281237 42.344188 64.925511 42.384486 63.161052 C 42.447811 61.396593 42.447811 59.588958 42.384486 57.741025 C 42.344188 55.870065 42.280864 54.419351 42.19739 53.391763 C 41.860617 50.386713 41.26191 48.432279 40.401269 47.528462 C 39.537749 46.627523 38.720283 46.175614 37.943115 46.175614 C 37.165947 46.175614 36.607537 46.500873 36.273643 47.151391 C 35.93687 47.781761 35.767045 49.137487 35.767045 51.215692 L 35.767045 67.098703 C 35.767045 68.63289 35.873545 69.988616 36.083669 71.165882 C 36.293792 72.32012 36.955824 72.898679 38.069765 72.898679 C 39.287328 72.898679 40.147969 72.489946 40.651689 71.669602 C 41.178437 70.849258 41.650494 69.36976 42.07074 67.225353 Z M 42.07074 67.225353 " stroke="#ffffff" stroke-width="9.681525" stroke-opacity="1" stroke-miterlimit="4"/><g fill="#000000" fill-opacity="1"><g transform="translate(21.757748, 239.638328)"><g><path d="M 102.65625 -51.5 C 102.65625 -47.644531 102.445312 -43.613281 102.03125 -39.40625 C 101.625 -35.207031 101.070312 -32.054688 100.375 -29.953125 C 100.375 -29.953125 99.757812 -28.375 98.53125 -25.21875 C 97.300781 -22.070312 95.40625 -18.921875 92.84375 -15.765625 C 91.5625 -14.359375 89.367188 -12.515625 86.265625 -10.234375 C 83.171875 -7.960938 80.109375 -6.1875 77.078125 -4.90625 C 73.335938 -3.382812 69.6875 -2.273438 66.125 -1.578125 C 62.5625 -0.878906 60.082031 -0.53125 58.6875 -0.53125 C 57.632812 -0.40625 56 -0.3125 53.78125 -0.25 C 51.5625 -0.195312 49.34375 -0.171875 47.125 -0.171875 C 44.90625 -0.171875 43.269531 -0.171875 42.21875 -0.171875 C 42.101562 -0.171875 40.847656 -0.140625 38.453125 -0.078125 C 36.054688 -0.0234375 33.101562 0 29.59375 0 C 26.09375 0 22.59375 0 19.09375 0 C 15.59375 0 12.671875 0 10.328125 0 C 7.992188 0 6.828125 0 6.828125 0 C 5.660156 0 5.132812 -0.582031 5.25 -1.75 C 5.488281 -2.6875 5.632812 -4.847656 5.6875 -8.234375 C 5.75 -11.617188 5.78125 -15.5 5.78125 -19.875 C 5.78125 -24.257812 5.78125 -28.460938 5.78125 -32.484375 C 5.78125 -36.515625 5.722656 -39.703125 5.609375 -42.046875 C 5.492188 -47.179688 5.316406 -52.316406 5.078125 -57.453125 C 4.847656 -62.585938 4.671875 -67.726562 4.546875 -72.875 L 4.546875 -103 C 4.671875 -104.863281 4.789062 -106.789062 4.90625 -108.78125 C 4.90625 -109.71875 5.375 -110.1875 6.3125 -110.1875 L 53.953125 -110.1875 C 53.953125 -110.1875 53.394531 -110.1875 52.28125 -110.1875 C 51.175781 -110.1875 50.15625 -110.1875 49.21875 -110.1875 C 48.289062 -110.1875 48.054688 -110.1875 48.515625 -110.1875 C 48.984375 -110.1875 50.851562 -110.1875 54.125 -110.1875 C 60.664062 -110.1875 66.390625 -109.515625 71.296875 -108.171875 C 76.203125 -106.828125 81.28125 -103.992188 86.53125 -99.671875 C 90.269531 -96.753906 93.160156 -93.25 95.203125 -89.15625 C 97.242188 -85.070312 98.703125 -81.304688 99.578125 -77.859375 C 100.460938 -74.421875 101.019531 -72.054688 101.25 -70.765625 C 101.476562 -69.484375 101.707031 -67.554688 101.9375 -64.984375 C 102.175781 -62.421875 102.351562 -59.851562 102.46875 -57.28125 C 102.59375 -54.707031 102.65625 -52.78125 102.65625 -51.5 Z M 57.109375 -44.5 C 57.335938 -45.78125 57.476562 -47.617188 57.53125 -50.015625 C 57.59375 -52.410156 57.59375 -54.863281 57.53125 -57.375 C 57.476562 -59.882812 57.394531 -61.835938 57.28125 -63.234375 C 56.8125 -67.328125 55.992188 -69.984375 54.828125 -71.203125 C 53.660156 -72.429688 52.550781 -73.046875 51.5 -73.046875 C 50.445312 -73.046875 49.6875 -72.609375 49.21875 -71.734375 C 48.75 -70.859375 48.515625 -69.019531 48.515625 -66.21875 L 48.515625 -44.671875 C 48.515625 -42.566406 48.660156 -40.722656 48.953125 -39.140625 C 49.253906 -37.566406 50.160156 -36.78125 51.671875 -36.78125 C 53.304688 -36.78125 54.472656 -37.332031 55.171875 -38.4375 C 55.878906 -39.550781 56.523438 -41.570312 57.109375 -44.5 Z M 57.109375 -44.5 "/></g></g></g><g clip-path="url(#d400d26531)"><g clip-path="url(#8ff3a2962c)"><g clip-path="url(#b8507df35d)"><path fill="#ffffff" d="M 66.671875 145.824219 L 53.015625 193.757812 L 68.261719 193.460938 L 61.234375 239.039062 L 93.710938 179.289062 L 79.308594 179.421875 L 98.648438 145.882812 Z M 66.671875 145.824219 " fill-opacity="1" fill-rule="nonzero"/></g></g></g></svg>