<svg xmlns="http://www.w3.org/2000/svg" xmlns:xlink="http://www.w3.org/1999/xlink" width="500" zoomAndPan="magnify" viewBox="0 0 375 374.999991" height="500" preserveAspectRatio="xMidYMid meet" version="1.0"><defs><g/><clipPath id="bdab6b2fe8"><path d="M 55 143 L 102 143 L 102 237 L 55 237 Z M 55 143 " clip-rule="nonzero"/></clipPath><clipPath id="7f56248af1"><path d="M 35.296875 155.5625 L 98.191406 133.203125 L 127.082031 214.472656 L 64.191406 236.832031 Z M 35.296875 155.5625 " clip-rule="nonzero"/></clipPath><clipPath id="343793b253"><path d="M 35.296875 155.5625 L 98.191406 133.203125 L 127.082031 214.472656 L 64.191406 236.832031 Z M 35.296875 155.5625 " clip-rule="nonzero"/></clipPath></defs><path stroke-linecap="butt" transform="matrix(1.357091, 0, 0, 1.357091, 247.423085, 104.148588)" fill="none" stroke-linejoin="miter" d="M 44.150885 18.821746 L 74.751154 18.821746 C 75.171401 18.821746 75.338348 19.031869 75.254874 19.452115 C 74.918101 22.203866 74.446044 25.816258 73.835823 30.29217 C 73.228481 34.768081 72.575084 39.589401 71.88139 44.756129 C 71.210722 49.925735 70.54869 54.965814 69.898172 59.882121 C 69.244775 64.778279 68.657582 69.032554 68.133713 72.644946 C 67.627114 76.260216 67.29322 78.750032 67.123394 80.114394 C 66.682999 82.699197 66.337591 85.347325 66.084292 88.055899 C 65.830993 90.767352 65.589207 93.182329 65.358935 95.30371 C 65.148812 97.404942 65.04519 98.803844 65.04519 99.49466 C 64.958838 99.831433 64.791891 100.001259 64.538591 100.001259 L 13.927686 100.001259 C 13.593791 100.001259 13.423966 99.874609 13.423966 99.62131 C 12.310025 94.705003 11.492559 89.693709 10.965812 84.590306 C 10.462092 79.463875 9.863385 74.357594 9.16969 69.27434 C 9.086217 68.497172 8.907756 67.184621 8.634308 65.33381 C 8.383887 63.485877 8.098926 61.491146 7.78518 59.346738 C 7.488705 57.182182 7.195108 55.155788 6.901511 53.264679 C 6.607915 51.373571 6.41794 49.997695 6.334467 49.137054 C 5.977545 47.499244 5.629259 45.196524 5.295364 42.234651 C 4.958591 39.272777 4.610305 36.152592 4.253383 32.876973 C 3.919489 29.598475 3.571203 26.676899 3.214281 24.115123 C 2.877508 21.53032 2.627087 19.849335 2.457262 19.072167 C 2.457262 18.90522 2.540735 18.821746 2.710561 18.821746 L 33.184181 18.821746 C 33.520954 18.821746 33.687901 18.988693 33.687901 19.325466 C 33.854848 22.687437 34.151323 25.784595 34.57157 28.622698 C 35.011965 31.457922 35.443725 34.408281 35.863971 37.476656 C 36.304367 40.522003 36.649775 43.978961 36.903074 47.844652 C 37.006696 48.875119 37.458605 49.462313 38.2588 49.609111 C 39.076266 49.735761 39.579986 49.283852 39.76996 48.253385 C 40.106733 44.367545 40.547128 40.9221 41.094024 37.917051 C 41.661069 34.891853 42.176302 31.941493 42.636846 29.063093 C 43.120418 26.184693 43.445677 22.937858 43.615502 19.325466 C 43.719125 18.988693 43.897586 18.821746 44.150885 18.821746 Z M 44.150885 18.821746 " stroke="#000000" stroke-width="9.681525" stroke-opacity="1" stroke-miterlimit="4"/><g fill="#ffffff" fill-opacity="1"><g transform="translate(247.423085, 239.857667)"><g><path d="M 59.90625 -110.1875 L 101.421875 -110.1875 C 102.003906 -110.1875 102.238281 -109.894531 102.125 -109.3125 C 101.65625 -105.570312 101.007812 -100.664062 100.1875 -94.59375 C 99.375 -88.519531 98.5 -81.976562 97.5625 -74.96875 C 96.632812 -67.96875 95.734375 -61.140625 94.859375 -54.484375 C 93.984375 -47.828125 93.191406 -42.046875 92.484375 -37.140625 C 91.785156 -32.234375 91.320312 -28.84375 91.09375 -26.96875 C 90.507812 -23.46875 90.039062 -19.878906 89.6875 -16.203125 C 89.332031 -12.523438 89.007812 -9.253906 88.71875 -6.390625 C 88.425781 -3.535156 88.28125 -1.640625 88.28125 -0.703125 C 88.164062 -0.234375 87.929688 0 87.578125 0 L 18.921875 0 C 18.453125 0 18.21875 -0.175781 18.21875 -0.53125 C 16.695312 -7.1875 15.585938 -13.988281 14.890625 -20.9375 C 14.191406 -27.882812 13.375 -34.800781 12.4375 -41.6875 C 12.320312 -42.738281 12.085938 -44.519531 11.734375 -47.03125 C 11.390625 -49.539062 11.007812 -52.253906 10.59375 -55.171875 C 10.1875 -58.097656 9.78125 -60.84375 9.375 -63.40625 C 8.96875 -65.976562 8.703125 -67.847656 8.578125 -69.015625 C 8.109375 -71.234375 7.640625 -74.359375 7.171875 -78.390625 C 6.710938 -82.421875 6.25 -86.65625 5.78125 -91.09375 C 5.3125 -95.53125 4.84375 -99.5 4.375 -103 C 3.90625 -106.5 3.554688 -108.773438 3.328125 -109.828125 C 3.328125 -110.066406 3.441406 -110.1875 3.671875 -110.1875 L 45.015625 -110.1875 C 45.484375 -110.1875 45.71875 -109.953125 45.71875 -109.484375 C 45.945312 -104.929688 46.351562 -100.726562 46.9375 -96.875 C 47.53125 -93.019531 48.117188 -89.019531 48.703125 -84.875 C 49.285156 -80.726562 49.75 -76.023438 50.09375 -70.765625 C 50.21875 -69.367188 50.832031 -68.582031 51.9375 -68.40625 C 53.050781 -68.226562 53.722656 -68.84375 53.953125 -70.25 C 54.421875 -75.5 55.035156 -80.164062 55.796875 -84.25 C 56.554688 -88.34375 57.253906 -92.34375 57.890625 -96.25 C 58.535156 -100.164062 58.972656 -104.578125 59.203125 -109.484375 C 59.328125 -109.953125 59.5625 -110.1875 59.90625 -110.1875 Z M 59.90625 -110.1875 "/></g></g></g><path stroke-linecap="butt" transform="matrix(1.357091, 0, 0, 1.357091, 171.989364, 103.929228)" fill="none" stroke-linejoin="miter" d="M 75.758688 72.110013 C 75.758688 72.63676 75.758688 73.529064 75.758688 74.789803 C 75.758688 76.027515 75.758688 77.414904 75.758688 78.949091 C 75.758688 82.394536 74.85487 85.796805 73.050113 89.158776 C 71.242478 92.520747 68.752662 95.062374 65.580666 96.786536 C 64.717146 97.290256 63.059187 97.952288 60.601034 98.769753 C 58.14288 99.590097 55.327805 99.99883 52.155808 99.99883 L 4.253477 99.99883 C 4.08653 99.99883 4.003056 99.831883 4.003056 99.49511 C 4.08653 97.690353 4.106679 95.471107 4.066381 92.846006 C 4.023205 90.220905 3.980029 87.615953 3.939731 85.03115 C 3.896555 82.446347 3.876407 80.293304 3.876407 78.572021 C 3.876407 76.847859 3.876407 75.944042 3.876407 75.860568 C 3.876407 75.523795 3.95988 75.356848 4.129706 75.356848 C 4.4636 75.440322 6.092774 75.546823 9.011472 75.670594 C 11.953197 75.797243 15.231694 75.860568 18.844086 75.860568 C 22.709777 75.777095 26.451697 75.58712 30.064089 75.293523 C 33.676481 74.976899 36.051161 74.65164 37.18525 74.317746 C 37.775322 74.14792 38.647478 73.779485 39.801716 73.21244 C 40.978982 72.645395 41.566175 71.59478 41.566175 70.060592 C 41.566175 69.45325 41.261065 68.779704 40.653722 68.045712 C 40.06365 67.308842 38.992886 66.816636 37.43855 66.563336 C 35.967687 66.312916 34.329878 66.186266 32.522243 66.186266 C 30.714607 66.186266 29.033622 66.249591 27.479286 66.37624 C 25.945099 66.500012 24.874334 66.606512 24.264113 66.689986 C 23.656771 66.689986 22.467992 66.733162 20.703532 66.816636 C 18.939073 66.900109 16.932829 66.974948 14.684798 67.035394 C 12.459795 67.07857 10.335536 67.141895 8.320656 67.225368 C 6.302898 67.308842 4.863698 67.352018 4.003056 67.352018 C 3.749757 67.352018 3.623107 67.090084 3.623107 66.563336 C 3.539634 64.588754 3.499336 62.424197 3.499336 60.072545 C 3.499336 57.697865 3.499336 55.513159 3.499336 53.518428 C 3.499336 53.181655 3.58281 53.01183 3.749757 53.01183 C 4.003056 53.01183 5.073821 52.991681 6.96493 52.951383 C 8.856038 52.908207 11.135731 52.844882 13.804008 52.761409 C 16.472285 52.677935 19.180859 52.591583 21.932609 52.50811 C 24.68436 52.424636 27.070553 52.341162 29.088311 52.257689 C 31.126219 52.151188 32.355295 52.099377 32.775542 52.099377 C 33.636183 52.015903 34.727097 51.846078 36.051161 51.595657 C 37.395374 51.342358 38.561126 50.890449 39.548417 50.239931 C 40.558735 49.589412 41.062455 48.665446 41.062455 47.468031 C 41.062455 45.660396 40.38891 44.546455 39.044697 44.126209 C 37.720633 43.685814 36.670017 43.423879 35.892849 43.337528 C 34.948734 43.254054 33.310924 43.190729 30.976542 43.150432 C 28.645038 43.107256 26.019937 43.107256 23.098361 43.150432 C 20.179664 43.190729 17.301264 43.254054 14.46604 43.337528 C 11.627938 43.423879 9.21296 43.507353 7.21535 43.590827 C 5.240768 43.6743 4.08653 43.717476 3.749757 43.717476 C 3.476309 43.717476 3.341024 43.590827 3.341024 43.337528 C 3.341024 41.866665 3.341024 40.577142 3.341024 39.463201 C 3.341024 38.34926 3.341024 37.100035 3.341024 35.712646 C 3.341024 32.960896 3.341024 30.209145 3.341024 27.454517 C 3.341024 24.702766 3.392835 21.951016 3.499336 19.199266 C 3.499336 18.945967 3.58281 18.822195 3.749757 18.822195 L 50.486336 18.822195 C 53.048112 18.822195 55.684727 18.925818 58.396179 19.135941 C 61.104754 19.346064 63.709706 20.008096 66.211035 21.122037 C 68.79296 22.256126 70.684069 23.620488 71.881483 25.218 C 73.101925 26.792485 73.962566 28.441808 74.466286 30.165969 C 74.906681 31.803779 75.211792 33.8532 75.381617 36.311353 C 75.548565 38.749358 75.421915 40.911036 75.001669 42.802145 C 74.4778 45.660396 73.740929 47.761628 72.796814 49.105841 C 71.849821 50.429905 70.885557 51.457494 69.898265 52.194364 C 68.910974 52.908207 68.027306 53.780362 67.250138 54.81083 C 66.639917 55.754945 66.945027 56.615586 68.165469 57.392754 C 68.41589 57.582729 69.161395 58.256274 70.401985 59.410513 C 71.662725 60.564751 72.868774 62.205439 74.025891 64.32682 C 75.180129 66.428052 75.758688 69.02149 75.758688 72.110013 Z M 75.758688 72.110013 " stroke="#000000" stroke-width="9.681525" stroke-opacity="1" stroke-miterlimit="4"/><g fill="#ffffff" fill-opacity="1"><g transform="translate(171.989364, 239.638307)"><g><path d="M 102.828125 -37.84375 C 102.828125 -37.132812 102.828125 -35.929688 102.828125 -34.234375 C 102.828125 -32.546875 102.828125 -30.648438 102.828125 -28.546875 C 102.828125 -23.878906 101.597656 -19.265625 99.140625 -14.703125 C 96.691406 -10.148438 93.304688 -6.707031 88.984375 -4.375 C 87.816406 -3.675781 85.566406 -2.769531 82.234375 -1.65625 C 78.910156 -0.550781 75.085938 0 70.765625 0 L 5.78125 0 C 5.550781 0 5.4375 -0.234375 5.4375 -0.703125 C 5.550781 -3.148438 5.578125 -6.15625 5.515625 -9.71875 C 5.460938 -13.28125 5.40625 -16.8125 5.34375 -20.3125 C 5.28125 -23.820312 5.25 -26.742188 5.25 -29.078125 C 5.25 -31.410156 5.25 -32.632812 5.25 -32.75 C 5.25 -33.21875 5.367188 -33.453125 5.609375 -33.453125 C 6.078125 -33.335938 8.296875 -33.191406 12.265625 -33.015625 C 16.234375 -32.835938 20.671875 -32.75 25.578125 -32.75 C 30.828125 -32.875 35.90625 -33.140625 40.8125 -33.546875 C 45.71875 -33.953125 48.929688 -34.390625 50.453125 -34.859375 C 51.265625 -35.085938 52.457031 -35.582031 54.03125 -36.34375 C 55.613281 -37.101562 56.40625 -38.535156 56.40625 -40.640625 C 56.40625 -41.453125 55.992188 -42.351562 55.171875 -43.34375 C 54.359375 -44.34375 52.898438 -45.019531 50.796875 -45.375 C 48.816406 -45.71875 46.597656 -45.890625 44.140625 -45.890625 C 41.691406 -45.890625 39.414062 -45.800781 37.3125 -45.625 C 35.207031 -45.457031 33.75 -45.3125 32.9375 -45.1875 C 32.113281 -45.1875 30.503906 -45.128906 28.109375 -45.015625 C 25.722656 -44.898438 23.007812 -44.8125 19.96875 -44.75 C 16.9375 -44.695312 14.046875 -44.609375 11.296875 -44.484375 C 8.554688 -44.367188 6.601562 -44.3125 5.4375 -44.3125 C 5.082031 -44.3125 4.90625 -44.664062 4.90625 -45.375 C 4.789062 -48.0625 4.734375 -51.007812 4.734375 -54.21875 C 4.734375 -57.425781 4.734375 -60.375 4.734375 -63.0625 C 4.734375 -63.53125 4.847656 -63.765625 5.078125 -63.765625 C 5.429688 -63.765625 6.890625 -63.789062 9.453125 -63.84375 C 12.023438 -63.90625 15.117188 -63.992188 18.734375 -64.109375 C 22.359375 -64.222656 26.039062 -64.335938 29.78125 -64.453125 C 33.519531 -64.578125 36.757812 -64.695312 39.5 -64.8125 C 42.25 -64.925781 43.914062 -64.984375 44.5 -64.984375 C 45.664062 -65.097656 47.148438 -65.332031 48.953125 -65.6875 C 50.765625 -66.039062 52.34375 -66.65625 53.6875 -67.53125 C 55.03125 -68.40625 55.703125 -69.660156 55.703125 -71.296875 C 55.703125 -73.742188 54.796875 -75.257812 52.984375 -75.84375 C 51.179688 -76.425781 49.753906 -76.78125 48.703125 -76.90625 C 47.410156 -77.019531 45.1875 -77.101562 42.03125 -77.15625 C 38.882812 -77.21875 35.328125 -77.21875 31.359375 -77.15625 C 27.390625 -77.101562 23.476562 -77.015625 19.625 -76.890625 C 15.769531 -76.773438 12.5 -76.660156 9.8125 -76.546875 C 7.125 -76.429688 5.546875 -76.375 5.078125 -76.375 C 4.722656 -76.375 4.546875 -76.550781 4.546875 -76.90625 C 4.546875 -78.882812 4.546875 -80.632812 4.546875 -82.15625 C 4.546875 -83.675781 4.546875 -85.367188 4.546875 -87.234375 C 4.546875 -90.972656 4.546875 -94.707031 4.546875 -98.4375 C 4.546875 -102.175781 4.609375 -105.914062 4.734375 -109.65625 C 4.734375 -110.007812 4.847656 -110.1875 5.078125 -110.1875 L 68.5 -110.1875 C 72 -110.1875 75.585938 -110.039062 79.265625 -109.75 C 82.941406 -109.457031 86.472656 -108.550781 89.859375 -107.03125 C 93.367188 -105.507812 95.9375 -103.664062 97.5625 -101.5 C 99.195312 -99.34375 100.367188 -97.097656 101.078125 -94.765625 C 101.660156 -92.546875 102.066406 -89.769531 102.296875 -86.4375 C 102.535156 -83.113281 102.363281 -80.164062 101.78125 -77.59375 C 101.070312 -73.75 100.078125 -70.921875 98.796875 -69.109375 C 97.515625 -67.296875 96.203125 -65.890625 94.859375 -64.890625 C 93.515625 -63.898438 92.316406 -62.707031 91.265625 -61.3125 C 90.441406 -60.03125 90.847656 -58.863281 92.484375 -57.8125 C 92.835938 -57.570312 93.859375 -56.664062 95.546875 -55.09375 C 97.242188 -53.519531 98.878906 -51.300781 100.453125 -48.4375 C 102.035156 -45.570312 102.828125 -42.039062 102.828125 -37.84375 Z M 102.828125 -37.84375 "/></g></g></g><path stroke-linecap="butt" transform="matrix(1.357091, 0, 0, 1.357091, 78.142682, 104.148588)" fill="none" stroke-linejoin="miter" d="M 75.25425 78.571571 C 75.25425 79.685512 75.25425 80.914589 75.25425 82.258802 C 75.25425 83.579987 75.25425 84.716955 75.25425 85.66107 C 75.25425 86.354765 75.274399 87.393867 75.317575 88.781256 C 75.360751 90.145618 75.424076 91.627993 75.50755 93.225505 C 75.591023 94.820139 75.654348 96.175865 75.694646 97.289806 C 75.737822 98.403747 75.75797 98.959278 75.75797 98.959278 C 75.75797 99.652972 75.424076 100.001259 74.75053 100.001259 L 4.914791 100.001259 C 3.697228 100.001259 3.130184 99.402552 3.213657 98.205137 C 3.487105 91.731616 3.645417 85.252338 3.685715 78.758667 C 3.728891 72.267876 3.792216 65.754057 3.875689 59.220089 C 3.959163 52.855947 4.192313 46.448628 4.569384 39.998134 C 4.969481 33.527491 4.696033 27.108659 3.74904 20.744517 C 3.665566 20.21777 3.792216 19.765861 4.128988 19.388791 C 4.465761 19.008842 4.894643 18.821746 5.42139 18.821746 L 74.215148 18.821746 C 74.739017 18.821746 75.087303 19.072167 75.25425 19.575887 C 75.25425 19.662239 75.234102 20.050823 75.190926 20.744517 C 75.150628 21.435333 75.087303 22.129027 75.00383 22.822722 C 75.00383 23.242968 74.960654 24.230259 74.87718 25.784595 C 74.793706 27.338931 74.718868 28.956592 74.655543 30.637578 C 74.615246 32.298414 74.592218 33.559153 74.592218 34.419795 C 74.592218 35.280437 74.635394 36.342566 74.718868 37.603305 C 74.825369 38.843896 74.940505 39.954958 75.064276 40.942249 C 75.190926 41.92954 75.25425 42.424625 75.25425 42.424625 C 75.25425 43.11832 74.865666 43.463728 74.088498 43.463728 C 74.088498 43.463728 73.248006 43.443579 71.56702 43.400403 C 69.886034 43.360105 67.75314 43.337078 65.171215 43.337078 C 62.606561 43.337078 59.87496 43.337078 56.976411 43.337078 C 54.098011 43.337078 51.429734 43.380254 48.971581 43.463728 C 46.536454 43.547201 44.622318 43.673851 43.237808 43.843676 C 41.954042 44.010624 40.641491 44.399208 39.297279 45.009428 C 37.973215 45.616771 37.227709 46.699049 37.060762 48.253385 C 36.954261 49.200379 37.247858 49.997695 37.941552 50.648214 C 38.635247 51.278583 39.372117 51.762155 40.149285 52.098927 C 40.569531 52.182401 41.913744 52.277388 44.181923 52.383889 C 46.47313 52.467363 49.213366 52.50766 52.40839 52.50766 C 55.600536 52.50766 58.804195 52.487511 62.019367 52.447214 C 65.254689 52.404038 67.986291 52.383889 70.211294 52.383889 C 72.459324 52.383889 73.751726 52.383889 74.088498 52.383889 C 74.865666 52.383889 75.25425 52.717783 75.25425 53.391329 L 75.25425 64.104733 C 75.25425 65.051727 75.25425 65.872071 75.25425 66.562887 C 75.25425 67.256581 75.25425 67.993452 75.25425 68.77062 C 75.25425 69.464314 74.865666 69.809722 74.088498 69.809722 C 72.617636 69.809722 70.568215 69.789573 67.943115 69.746397 C 65.338163 69.683072 62.629588 69.611112 59.811635 69.527639 C 57.019587 69.441287 54.498109 69.377962 52.250078 69.337664 C 50.022197 69.294488 48.531185 69.27434 47.774166 69.27434 C 46.913525 69.357813 45.851395 69.400989 44.590656 69.400989 C 43.352944 69.400989 42.164165 69.57945 41.030075 69.936372 C 39.916135 70.273144 39.107304 70.955325 38.603584 71.982914 C 37.742943 73.623602 37.869592 74.979328 38.983533 76.050093 C 40.094595 77.120858 41.346699 77.834701 42.73121 78.191623 C 43.59473 78.361448 45.359189 78.444922 48.027465 78.444922 C 50.695742 78.444922 53.720941 78.381597 57.10306 78.254947 C 60.505329 78.128298 63.772313 78.004527 66.904012 77.877877 C 70.05586 77.731079 72.450689 77.615943 74.088498 77.529591 C 74.865666 77.529591 75.25425 77.877877 75.25425 78.571571 Z M 75.25425 78.571571 " stroke="#000000" stroke-width="9.681525" stroke-opacity="1" stroke-miterlimit="4"/><g fill="#ffffff" fill-opacity="1"><g transform="translate(78.142682, 239.857667)"><g><path d="M 102.125 -29.078125 C 102.125 -27.554688 102.125 -25.890625 102.125 -24.078125 C 102.125 -22.273438 102.125 -20.726562 102.125 -19.4375 C 102.125 -18.507812 102.148438 -17.109375 102.203125 -15.234375 C 102.265625 -13.367188 102.351562 -11.351562 102.46875 -9.1875 C 102.59375 -7.03125 102.679688 -5.191406 102.734375 -3.671875 C 102.796875 -2.160156 102.828125 -1.40625 102.828125 -1.40625 C 102.828125 -0.46875 102.359375 0 101.421875 0 L 6.65625 0 C 5.019531 0 4.257812 -0.816406 4.375 -2.453125 C 4.726562 -11.210938 4.929688 -20 4.984375 -28.8125 C 5.046875 -37.632812 5.132812 -46.484375 5.25 -55.359375 C 5.375 -63.992188 5.695312 -72.691406 6.21875 -81.453125 C 6.738281 -90.210938 6.359375 -98.914062 5.078125 -107.5625 C 4.960938 -108.257812 5.140625 -108.867188 5.609375 -109.390625 C 6.078125 -109.921875 6.660156 -110.1875 7.359375 -110.1875 L 100.71875 -110.1875 C 101.425781 -110.1875 101.894531 -109.832031 102.125 -109.125 C 102.125 -109.007812 102.09375 -108.484375 102.03125 -107.546875 C 101.976562 -106.617188 101.894531 -105.6875 101.78125 -104.75 C 101.78125 -104.164062 101.71875 -102.820312 101.59375 -100.71875 C 101.476562 -98.625 101.390625 -96.4375 101.328125 -94.15625 C 101.273438 -91.875 101.25 -90.148438 101.25 -88.984375 C 101.25 -87.816406 101.304688 -86.382812 101.421875 -84.6875 C 101.535156 -83 101.679688 -81.484375 101.859375 -80.140625 C 102.035156 -78.796875 102.125 -78.125 102.125 -78.125 C 102.125 -77.1875 101.597656 -76.71875 100.546875 -76.71875 C 100.546875 -76.71875 99.40625 -76.75 97.125 -76.8125 C 94.851562 -76.875 91.960938 -76.90625 88.453125 -76.90625 C 84.953125 -76.90625 81.242188 -76.90625 77.328125 -76.90625 C 73.421875 -76.90625 69.800781 -76.84375 66.46875 -76.71875 C 63.144531 -76.601562 60.550781 -76.429688 58.6875 -76.203125 C 56.9375 -75.960938 55.15625 -75.429688 53.34375 -74.609375 C 51.53125 -73.796875 50.507812 -72.34375 50.28125 -70.25 C 50.15625 -68.957031 50.5625 -67.875 51.5 -67 C 52.4375 -66.125 53.429688 -65.453125 54.484375 -64.984375 C 55.066406 -64.867188 56.90625 -64.753906 60 -64.640625 C 63.09375 -64.523438 66.796875 -64.46875 71.109375 -64.46875 C 75.429688 -64.46875 79.78125 -64.492188 84.15625 -64.546875 C 88.539062 -64.609375 92.25 -64.640625 95.28125 -64.640625 C 98.320312 -64.640625 100.078125 -64.640625 100.546875 -64.640625 C 101.597656 -64.640625 102.125 -64.171875 102.125 -63.234375 L 102.125 -48.703125 C 102.125 -47.410156 102.125 -46.296875 102.125 -45.359375 C 102.125 -44.429688 102.125 -43.441406 102.125 -42.390625 C 102.125 -41.453125 101.597656 -40.984375 100.546875 -40.984375 C 98.566406 -40.984375 95.796875 -41.015625 92.234375 -41.078125 C 88.671875 -41.140625 84.988281 -41.226562 81.1875 -41.34375 C 77.394531 -41.457031 73.976562 -41.539062 70.9375 -41.59375 C 67.90625 -41.65625 65.863281 -41.6875 64.8125 -41.6875 C 63.644531 -41.570312 62.210938 -41.515625 60.515625 -41.515625 C 58.828125 -41.515625 57.222656 -41.28125 55.703125 -40.8125 C 54.179688 -40.34375 53.070312 -39.410156 52.375 -38.015625 C 51.207031 -35.796875 51.378906 -33.957031 52.890625 -32.5 C 54.410156 -31.039062 56.109375 -30.078125 57.984375 -29.609375 C 59.148438 -29.367188 61.539062 -29.25 65.15625 -29.25 C 68.78125 -29.25 72.898438 -29.335938 77.515625 -29.515625 C 82.128906 -29.691406 86.566406 -29.867188 90.828125 -30.046875 C 95.085938 -30.222656 98.328125 -30.367188 100.546875 -30.484375 C 101.597656 -30.484375 102.125 -30.015625 102.125 -29.078125 Z M 102.125 -29.078125 "/></g></g></g><path stroke-linecap="butt" transform="matrix(1.357091, 0, 0, 1.357091, 21.757748, 103.929228)" fill="none" stroke-linejoin="miter" d="M 75.632884 62.058641 C 75.632884 64.893864 75.486085 67.867252 75.192488 70.975924 C 74.898892 74.064447 74.48728 76.384437 73.963412 77.941651 C 73.963412 77.941651 73.511503 79.107403 72.607685 81.438907 C 71.703868 83.750262 70.307844 86.061618 68.416735 88.370094 C 67.469741 89.42071 65.852081 90.78795 63.563753 92.468936 C 61.292695 94.126894 59.03603 95.430809 56.787999 96.374924 C 54.036249 97.509014 51.344945 98.340872 48.719844 98.86474 C 46.094744 99.36846 44.26696 99.62176 43.236492 99.62176 C 42.459324 99.705233 41.250397 99.768558 39.612587 99.811734 C 37.994926 99.852032 36.365752 99.875059 34.727942 99.875059 C 33.090133 99.875059 31.881205 99.875059 31.104037 99.875059 C 31.020563 99.875059 30.096597 99.895208 28.332138 99.938384 C 26.5648 99.978681 24.391608 99.99883 21.806805 99.99883 C 19.222002 99.99883 16.640077 99.99883 14.055274 99.99883 C 11.49062 99.99883 9.34909 99.99883 7.624929 99.99883 C 5.903646 99.99883 5.043004 99.99883 5.043004 99.99883 C 4.179484 99.99883 3.7909 99.569948 3.877252 98.709307 C 4.044199 98.015612 4.1507 96.429614 4.190998 93.948433 C 4.234174 91.449982 4.254322 88.591731 4.254322 85.376558 C 4.254322 82.141237 4.254322 79.044079 4.254322 76.082205 C 4.254322 73.097304 4.211146 70.745652 4.127673 69.02149 C 4.044199 65.239272 3.91755 61.459933 3.750602 57.677716 C 3.580777 53.87535 3.445492 50.081619 3.34187 46.299401 L 3.34187 24.115573 C 3.445492 22.728184 3.540479 21.300498 3.623953 19.829635 C 3.623953 19.15609 3.960726 18.822195 4.631393 18.822195 L 39.770899 18.822195 C 39.770899 18.822195 39.359288 18.822195 38.541822 18.822195 C 37.721478 18.822195 36.964459 18.822195 36.273643 18.822195 C 35.579949 18.822195 35.401488 18.822195 35.735382 18.822195 C 36.092304 18.822195 37.479693 18.822195 39.897549 18.822195 C 44.707355 18.822195 48.918454 19.314402 52.533724 20.301693 C 56.146116 21.288984 59.885158 23.370067 63.750849 26.542064 C 66.505477 28.706621 68.635493 31.288545 70.149532 34.293595 C 71.660692 37.298644 72.734335 40.070544 73.364704 42.612171 C 74.015223 45.156676 74.423956 46.898108 74.593781 47.845102 C 74.780877 48.789217 74.959338 50.208268 75.129164 52.099377 C 75.296111 53.990486 75.42276 55.89023 75.506234 57.804365 C 75.589708 59.692596 75.632884 61.111647 75.632884 62.058641 Z M 42.07074 67.225368 C 42.237688 66.281253 42.344188 64.925527 42.384486 63.161068 C 42.447811 61.396609 42.447811 59.588973 42.384486 57.741041 C 42.344188 55.870081 42.280864 54.419367 42.19739 53.391778 C 41.860617 50.386729 41.26191 48.432295 40.401269 47.528478 C 39.537749 46.627539 38.720283 46.17563 37.943115 46.17563 C 37.165947 46.17563 36.607537 46.500889 36.273643 47.151407 C 35.93687 47.781777 35.767045 49.137503 35.767045 51.215708 L 35.767045 67.098719 C 35.767045 68.632906 35.873545 69.988632 36.083669 71.165898 C 36.293792 72.320136 36.955824 72.898695 38.069765 72.898695 C 39.287328 72.898695 40.147969 72.489962 40.651689 71.669618 C 41.178437 70.849274 41.650494 69.369776 42.07074 67.225368 Z M 42.07074 67.225368 " stroke="#000000" stroke-width="9.681525" stroke-opacity="1" stroke-miterlimit="4"/><g fill="#ffffff" fill-opacity="1"><g transform="translate(21.757748, 239.638307)"><g><path d="M 102.65625 -51.5 C 102.65625 -47.644531 102.445312 -43.613281 102.03125 -39.40625 C 101.625 -35.207031 101.070312 -32.054688 100.375 -29.953125 C 100.375 -29.953125 99.757812 -28.375 98.53125 -25.21875 C 97.300781 -22.070312 95.40625 -18.921875 92.84375 -15.765625 C 91.5625 -14.359375 89.367188 -12.515625 86.265625 -10.234375 C 83.171875 -7.960938 80.109375 -6.1875 77.078125 -4.90625 C 73.335938 -3.382812 69.6875 -2.273438 66.125 -1.578125 C 62.5625 -0.878906 60.082031 -0.53125 58.6875 -0.53125 C 57.632812 -0.40625 56 -0.3125 53.78125 -0.25 C 51.5625 -0.195312 49.34375 -0.171875 47.125 -0.171875 C 44.90625 -0.171875 43.269531 -0.171875 42.21875 -0.171875 C 42.101562 -0.171875 40.847656 -0.140625 38.453125 -0.078125 C 36.054688 -0.0234375 33.101562 0 29.59375 0 C 26.09375 0 22.59375 0 19.09375 0 C 15.59375 0 12.671875 0 10.328125 0 C 7.992188 0 6.828125 0 6.828125 0 C 5.660156 0 5.132812 -0.582031 5.25 -1.75 C 5.488281 -2.6875 5.632812 -4.847656 5.6875 -8.234375 C 5.75 -11.617188 5.78125 -15.5 5.78125 -19.875 C 5.78125 -24.257812 5.78125 -28.460938 5.78125 -32.484375 C 5.78125 -36.515625 5.722656 -39.703125 5.609375 -42.046875 C 5.492188 -47.179688 5.316406 -52.316406 5.078125 -57.453125 C 4.847656 -62.585938 4.671875 -67.726562 4.546875 -72.875 L 4.546875 -103 C 4.671875 -104.863281 4.789062 -106.789062 4.90625 -108.78125 C 4.90625 -109.71875 5.375 -110.1875 6.3125 -110.1875 L 53.953125 -110.1875 C 53.953125 -110.1875 53.394531 -110.1875 52.28125 -110.1875 C 51.175781 -110.1875 50.15625 -110.1875 49.21875 -110.1875 C 48.289062 -110.1875 48.054688 -110.1875 48.515625 -110.1875 C 48.984375 -110.1875 50.851562 -110.1875 54.125 -110.1875 C 60.664062 -110.1875 66.390625 -109.515625 71.296875 -108.171875 C 76.203125 -106.828125 81.28125 -103.992188 86.53125 -99.671875 C 90.269531 -96.753906 93.160156 -93.25 95.203125 -89.15625 C 97.242188 -85.070312 98.703125 -81.304688 99.578125 -77.859375 C 100.460938 -74.421875 101.019531 -72.054688 101.25 -70.765625 C 101.476562 -69.484375 101.707031 -67.554688 101.9375 -64.984375 C 102.175781 -62.421875 102.351562 -59.851562 102.46875 -57.28125 C 102.59375 -54.707031 102.65625 -52.78125 102.65625 -51.5 Z M 57.109375 -44.5 C 57.335938 -45.78125 57.476562 -47.617188 57.53125 -50.015625 C 57.59375 -52.410156 57.59375 -54.863281 57.53125 -57.375 C 57.476562 -59.882812 57.394531 -61.835938 57.28125 -63.234375 C 56.8125 -67.328125 55.992188 -69.984375 54.828125 -71.203125 C 53.660156 -72.429688 52.550781 -73.046875 51.5 -73.046875 C 50.445312 -73.046875 49.6875 -72.609375 49.21875 -71.734375 C 48.75 -70.859375 48.515625 -69.019531 48.515625 -66.21875 L 48.515625 -44.671875 C 48.515625 -42.566406 48.660156 -40.722656 48.953125 -39.140625 C 49.253906 -37.566406 50.160156 -36.78125 51.671875 -36.78125 C 53.304688 -36.78125 54.472656 -37.332031 55.171875 -38.4375 C 55.878906 -39.550781 56.523438 -41.570312 57.109375 -44.5 Z M 57.109375 -44.5 "/></g></g></g><g clip-path="url(#bdab6b2fe8)"><g clip-path="url(#7f56248af1)"><g clip-path="url(#343793b253)"><path fill="#000000" d="M 69.550781 143.390625 L 55.890625 191.324219 L 71.136719 191.027344 L 64.109375 236.609375 L 96.589844 176.855469 L 82.1875 176.988281 L 101.523438 143.449219 Z M 69.550781 143.390625 " fill-opacity="1" fill-rule="nonzero"/></g></g></g></svg>